<svg fill="#e62b26" height="512" viewBox="0 0 74 74" width="512" xmlns="http://www.w3.org/2000/svg"><path d="m39.22 69h-2.9a1 1 0 1 1 0-2h2.9a1 1 0 0 1 0 2z"/><path d="m62 69h-5.81a1 1 0 0 1 0-2h5.81a8.009 8.009 0 0 0 8-8v-20.99h-66v20.99a8.009 8.009 0 0 0 8 8h17.32a1 1 0 0 1 0 2h-17.32a10.011 10.011 0 0 1 -10-10v-20.99a2 2 0 0 1 2-2h66a2 2 0 0 1 2 2v20.99a10.011 10.011 0 0 1 -10 10z"/><path d="m49.19 69h-2.97a1 1 0 0 1 0-2h2.97a1 1 0 0 1 0 2z"/><path d="m67 38h-60a1 1 0 0 1 -1-1v-10a1 1 0 0 1 1-1h60a1 1 0 0 1 1 1v10a1 1 0 0 1 -1 1zm-59-2h58v-8h-58z"/><path d="m59.285 28a1 1 0 0 1 -.976-.787c-1.355-6.224-6.3-9.547-10.21-11.239a16.49 16.49 0 0 0 -4.677-1.194c-6.473-.767-10-5.851-11.074-7.692a4.463 4.463 0 0 0 -3.191 1.936c-1.319 2.1-.564 5.487-.162 6.613a1 1 0 0 1 -.852 1.333c-12.4 1.12-12.434 9.65-12.429 10.012a1 1 0 0 1 -.982 1.018 1.024 1.024 0 0 1 -1.018-.976c0-.1-.067-10.153 13.058-11.911-.389-1.678-.8-4.778.69-7.149a6.736 6.736 0 0 1 5.324-2.956 1.007 1.007 0 0 1 1.007.557c.031.065 3.212 6.442 9.865 7.23a18.5 18.5 0 0 1 5.236 1.345c3.552 1.537 9.753 5.225 11.369 12.649a1 1 0 0 1 -.764 1.19.987.987 0 0 1 -.214.021z"/><path d="m35 60h-32a1 1 0 0 1 0-2h31v-12h-31a1 1 0 0 1 0-2h32a1 1 0 0 1 1 1v14a1 1 0 0 1 -1 1z"/></svg>